# xmcd
#
# Track frame offsets:
#	150
#	23330
#	42455
#	68115
#	91292
#
# Disc length: 1471 seconds
#
# Revision: 1
# Processed by: cddbd v1.5.1PL0 Copyright (c) Steve Scherf et al.
# Submitted via: CDex 1.50Beta5
#
DISCID=3405bd05
DTITLE=BETCHIN’ - Happiness
DYEAR=2000
DGENRE=Rock
TTITLE0=Happiness
TTITLE1=Get da Party!
TTITLE2=Happiness
TTITLE3=Happiness
TTITLE4=Get da Party!
EXTD=
EXTT0=
EXTT1=
EXTT2=
EXTT3=
EXTT4=
PLAYORDER=
